<svg width="22" height="22" viewBox="0 0 22 22" fill="none" xmlns="http://www.w3.org/2000/svg">
<path d="M11.2635 21.5161L12.244 20.5844C12.4891 20.3392 12.4891 19.9468 12.244 19.7507L4.64513 12.1005H21.4117C21.7059 12.1005 22 11.8553 22 11.512V10.1389C22 9.84469 21.7059 9.55045 21.4117 9.55045H4.64513L12.244 1.94932C12.4891 1.75316 12.4891 1.36085 12.244 1.11565L11.2635 0.183898C11.0674 -0.0612994 10.6752 -0.0612994 10.4301 0.183898L0.183844 10.4332C-0.0612813 10.6784 -0.0612813 11.0216 0.183844 11.2668L10.4301 21.5161C10.6752 21.7613 11.0674 21.7613 11.2635 21.5161Z" fill="#303030"/>
</svg>
