<svg width="27" height="16" viewBox="0 0 27 16" fill="none" xmlns="http://www.w3.org/2000/svg">
<path fill-rule="evenodd" clip-rule="evenodd" d="M26.947 14.042C26.9117 13.9574 26.8599 13.8807 26.7948 13.8163L23.3861 10.4434L22.388 11.4174L25.8033 14.7968C25.8683 14.8612 25.9454 14.9121 26.03 14.9469C26.1146 14.9817 26.2051 14.9997 26.2966 15C26.388 15.0003 26.4787 14.9829 26.5635 14.9487C26.6483 14.9146 26.7258 14.8642 26.7913 14.8002C26.8568 14.7363 26.9092 14.66 26.9451 14.5757C26.981 14.4913 26.9997 14.4007 27 14.309C27.0003 14.2173 26.9823 14.1265 26.947 14.042ZM17.9524 1.40792C18.849 1.40724 19.7253 1.66787 20.4705 2.15638C21.2158 2.64496 21.7962 3.33934 22.139 4.15115C22.4817 4.9629 22.5718 5.85607 22.3979 6.71785C22.224 7.57966 21.7938 8.37206 21.161 8.99454C20.5282 9.61707 19.7211 10.0417 18.8418 10.2139C17.9624 10.3861 17.0508 10.2981 16.2226 9.96112C15.3944 9.62418 14.6872 9.0537 14.19 8.32254C13.6929 7.5916 13.4278 6.73272 13.4277 5.85446C13.4333 4.67905 13.9105 3.55233 14.7573 2.71938C15.6042 1.88628 16.7523 1.41449 17.9524 1.40792ZM17.9516 0C16.7755 0 15.6254 0.342743 14.6468 0.985391C13.6682 1.62807 12.9047 2.54202 12.4537 3.61218C12.0026 4.68239 11.8845 5.8603 12.1145 6.99674C12.3445 8.13315 12.9121 9.17638 13.7448 9.99475C14.5774 10.8131 15.6377 11.3699 16.7913 11.5954C17.9449 11.8209 19.1407 11.7052 20.2277 11.2627C21.3147 10.8202 22.2445 10.0705 22.899 9.10782C23.5535 8.14505 23.9032 7.01265 23.9032 5.85385C23.9032 4.29982 23.275 2.81039 22.1584 1.71295C21.0419 0.615654 19.5286 0 17.9516 0ZM0.585937 0.312988C0.262333 0.312988 0 0.662766 0 1.09424C0 1.52571 0.262333 1.87549 0.585937 1.87549H8.78905C9.11266 1.87549 9.37499 1.52571 9.37499 1.09424C9.37499 0.662766 9.11266 0.312988 8.78905 0.312988H0.585937ZM0.624999 7.1253C0.279822 7.1253 0 7.47508 0 7.90655C0 8.33802 0.279822 8.6878 0.624999 8.6878H5.625C5.97017 8.6878 6.24999 8.33802 6.24999 7.90655C6.24999 7.47508 5.97017 7.1253 5.625 7.1253H0.624999ZM0 14.7192C0 14.2878 0.249841 13.938 0.558035 13.938H15.067C15.3751 13.938 15.625 14.2878 15.625 14.7192C15.625 15.1507 15.3751 15.5005 15.067 15.5005H0.558035C0.249841 15.5005 0 15.1507 0 14.7192Z" fill="#303030"/>
</svg>
